# xmcd
#
# Track frame offsets:
# 150
# 11140
# 27965
# 41605
# 56037
# 71460
# 87755
# 99415
# 116467
# 134082
# 149930
# 169107
# 186555
# 203972
# 218970
# 237185
#
# Disc length: 3369 seconds
#
#
# Revision: 6
# Processed by: cddbd v1.5.2PL0 Copyright (c) Steve Scherf et al.
# Submitted via: FreeRIP 2.944 
#
DISCID=f50d2710
DTITLE=Cesar and Paulinho - Disco De Platina
DYEAR=2000
DGENRE=Sertanejo
TTITLE0=Pé De Bode
TTITLE1=Faz De Conta Que Sou Ele
TTITLE2=Vai De Roda
TTITLE3=Você É Tudo Que Pedi Pra Deus ( Magia )
TTITLE4=Tchaca Tchaca Na Butchaca
TTITLE5=Duas Vezes Você
TTITLE6=Chute Pro Gôoorrr
TTITLE7=Viajante Solitário ( O Comboio )
TTITLE8=Boboca E Bobão
TTITLE9=Mel E Morango
TTITLE10=Forró-Bailão
TTITLE11=O Feijão E A Flôr
TTITLE12=Mais Você Do Que Eu
TTITLE13=Morto De Saudade Sua
TTITLE14=Menino Folgazão
TTITLE15=Pot-Pourri De Catira
EXTD=
EXTT0=
EXTT1=
EXTT2=
EXTT3=
EXTT4=
EXTT5=
EXTT6=
EXTT7=
EXTT8=
EXTT9=
EXTT10=
EXTT11=
EXTT12=
EXTT13=
EXTT14=
EXTT15=
PLAYORDER=
